<?xml version="1.0" standalone="no"?>
<!DOCTYPE svg PUBLIC "-//W3C//DTD SVG 20010904//EN"
 "http://www.w3.org/TR/2001/REC-SVG-20010904/DTD/svg10.dtd">
<svg version="1.0" xmlns="http://www.w3.org/2000/svg"
 width="2048.000000pt" height="2048.000000pt" viewBox="0 0 2048.000000 2048.000000"
 preserveAspectRatio="xMidYMid meet">

<g transform="translate(0.000000,2048.000000) scale(0.100000,-0.100000)"
fill="#FFFFFF" stroke="none">
<path d="M9805 20313 c-27 -1 -131 -7 -230 -13 -1354 -81 -2722 -458 -3950
-1089 -1936 -996 -3494 -2583 -4451 -4536 -422 -862 -694 -1688 -868 -2640
-58 -315 -112 -745 -131 -1030 l-7 -100 1334 -549 c1618 -666 4000 -1648 4049
-1668 35 -15 36 -15 115 34 191 119 460 238 684 302 256 73 409 97 684 105
l209 6 1231 1788 1231 1788 2 152 c12 757 284 1554 741 2172 178 240 462 538
677 711 592 474 1230 739 2015 836 162 20 650 17 830 -5 895 -110 1684 -500
2305 -1138 589 -605 946 -1347 1062 -2204 25 -190 25 -745 0 -935 -121 -900
-499 -1660 -1134 -2280 -295 -289 -584 -497 -943 -679 -520 -265 -1112 -410
-1667 -411 l-143 0 -1762 -1261 -1763 -1261 -7 -176 c-15 -408 -108 -778 -289
-1141 -594 -1195 -1930 -1804 -3217 -1466 -975 256 -1736 1020 -1991 1999
l-26 99 -215 89 c-211 87 -450 186 -2549 1052 -568 235 -1036 425 -1039 422
-8 -9 127 -409 218 -647 1196 -3114 3859 -5444 7095 -6208 545 -128 1115 -212
1720 -252 404 -27 1089 -15 1545 27 1995 184 3892 964 5449 2241 832 681 1573
1522 2146 2433 776 1233 1275 2623 1459 4060 60 467 80 786 80 1295 0 417 -7
599 -40 950 -186 2020 -986 3943 -2292 5509 -357 428 -813 887 -1232 1242
-964 815 -2081 1448 -3262 1849 -897 305 -1791 475 -2763 525 -170 9 -782 11
-910 3z"/>
<path d="M13310 15310 c-492 -51 -921 -219 -1313 -514 -461 -346 -806 -876
-940 -1441 -44 -186 -58 -300 -64 -525 -8 -336 25 -564 130 -880 141 -429 422
-842 772 -1137 212 -178 515 -354 769 -448 130 -48 370 -108 521 -131 162 -25
541 -25 698 -1 571 88 1056 329 1449 720 403 401 651 898 734 1472 25 170 25
505 0 680 -79 560 -332 1068 -727 1464 -396 396 -892 644 -1454 727 -121 18
-458 26 -575 14z m535 -645 c628 -110 1141 -490 1415 -1050 336 -684 238
-1493 -251 -2080 -269 -322 -640 -548 -1050 -639 -797 -176 -1608 164 -2045
860 -378 604 -382 1396 -9 2011 144 236 357 456 600 616 233 153 542 263 836
296 115 13 394 5 504 -14z"/>
<path d="M6850 8474 c-118 -16 -310 -61 -415 -97 l-70 -24 40 -17 c22 -10 312
-130 645 -268 673 -278 715 -297 815 -358 411 -252 684 -669 751 -1148 21
-150 14 -383 -16 -525 -134 -636 -611 -1114 -1247 -1248 -127 -27 -366 -36
-499 -19 -206 25 -288 54 -988 344 -367 152 -669 276 -672 276 -10 0 86 -171
146 -261 169 -251 417 -488 672 -643 247 -150 565 -259 861 -296 130 -16 403
-13 537 5 546 76 1057 363 1393 784 317 397 500 957 473 1441 -42 731 -409
1367 -1011 1745 -259 163 -599 280 -920 315 -125 14 -370 11 -495 -6z"/>
</g>
</svg>
